PathFileType	4	(X/Y/Z)	C:/Users/opensim2020/Desktop/walking_exp_matlab/subject02_walking09_straight_04.trc																																																																																																																												
DataRate	CameraRate	NumFrames	NumMarkers	Units	OrigDataRate	OrigDataStartFrame	OrigNumFrames																																																																																																																								
100	100	8	42	mm	100	3185	285																																																																																																																								
Frame#	Time	LFHD			RFHD			LBHD			RBHD			C7			T10			CLAV			STRN			RBAK			LSHO			LUPA			LELB			LFRM			LWRA			LWRB			LFIN			RSHO			RUPA			RELB			RFRM			RWRA			RWRB			RFIN			LASI			RASI			LPSI			RPSI			LTHI			LKNE			LTIB			LANK			LHEE			LTOE			RTHI			RKNE			RTIB			RANK			RHEE			RTOE			*39			*40			*41		
		X1	Y1	Z1	X2	Y2	Z2	X3	Y3	Z3	X4	Y4	Z4	X5	Y5	Z5	X6	Y6	Z6	X7	Y7	Z7	X8	Y8	Z8	X9	Y9	Z9	X10	Y10	Z10	X11	Y11	Z11	X12	Y12	Z12	X13	Y13	Z13	X14	Y14	Z14	X15	Y15	Z15	X16	Y16	Z16	X17	Y17	Z17	X18	Y18	Z18	X19	Y19	Z19	X20	Y20	Z20	X21	Y21	Z21	X22	Y22	Z22	X23	Y23	Z23	X24	Y24	Z24	X25	Y25	Z25	X26	Y26	Z26	X27	Y27	Z27	X28	Y28	Z28	X29	Y29	Z29	X30	Y30	Z30	X31	Y31	Z31	X32	Y32	Z32	X33	Y33	Z33	X34	Y34	Z34	X35	Y35	Z35	X36	Y36	Z36	X37	Y37	Z37	X38	Y38	Z38	X39	Y39	Z39	X40	Y40	Z40	X41	Y41	Z41	X42	Y42	Z42
																																																																																																																															
179	1.78	483.09778	1733.9762	-1450.95874	480.90402	1711.20972	-1308.25256	345.19531	1674.06714	-1460.47241	331.08563	1652.19006	-1318.72717	281.93042	1530.17896	-1377.1261	218.91524	1256.09619	-1364.09912	413.11841	1455.00586	-1408.96716	460.86801	1282.05383	-1399.79114	230.37367	1360.49219	-1299.46082	319.34006	1496.14319	-1566.2605	262.70068	1299.54333	-1634.90735	234.2552	1161.00757	-1636.45654	218.96243	1029.69116	-1646.84302	258.83185	896.34705	-1622.08521	208.12935	905.94598	-1645.64709	216.01456	839.30566	-1649.2937	391.44501	1499.06152	-1208.04932	411.1265	1311.58716	-1112.08997	461.2294	1171.99365	-1093.8844	525.73297	1069.26831	-1084.92554	603.48285	962.86542	-1116.14563	567.18176	946.22504	-1075.48889	622.89301	900.50873	-1080.14612	440.9859	994.79004	-1518.9386	450.30121	974.1731	-1261.22717	234.31226	1034.88916	-1428.86719	234.19365	1034.00012	-1314.75952	434.54871	693.41547	-1592.50964	463.25259	495.62119	-1568.6803	423.55399	305.55328	-1562.57813	452.51505	82.59058	-1543.21228	435.91031	52.34851	-1483.76147	598.69934	56.17075	-1591.70081	345.77914	668.39716	-1211.99194	317.72192	460.87558	-1261.01929	256.07156	281.85556	-1262.6189	222.46207	92.25689	-1309.95435	188.98351	39.67757	-1370.01929	367.77823	35.41819	-1278.09851	388.91574	1807.92151	-1358.70789	-2845.91602	1034.13538	3357.3418	NaN	NaN	NaN
180	1.79	491.26398	1732.7572	-1451.87463	489.2439	1710.35095	-1309.14709	353.25665	1673.11829	-1461.06567	339.29346	1651.52295	-1319.37012	289.80392	1529.4502	-1377.39917	226.43024	1255.44592	-1364.53662	420.93036	1454.07349	-1409.26611	468.52612	1281.09155	-1399.83557	238.34891	1359.86902	-1299.17041	326.95819	1495.09729	-1566.48328	269.34164	1298.66357	-1634.57764	239.70026	1160.55615	-1636.05908	223.26534	1029.22888	-1646.23218	261.97269	895.68463	-1622.50757	210.99077	905.98792	-1645.50647	218.1965	839.07623	-1649.29736	399.44601	1498.39673	-1208.33545	420.06601	1311.12903	-1112.37036	471.46448	1171.91589	-1094.11316	536.90582	1069.93994	-1085.13867	615.79315	964.6076	-1116.6604	579.79443	947.48737	-1075.78296	636.20941	902.43848	-1080.6261	448.8223	994.00531	-1519.13806	457.18484	973.37097	-1261.18384	241.92455	1034.08813	-1429.43909	241.1909	1033.13623	-1315.4071	442.70212	692.56726	-1592.48645	473.04651	494.86661	-1567.9502	440.26346	303.23193	-1563.68542	477.17236	81.26162	-1546.09119	460.85571	50.0954	-1486.97607	625.38806	59.93251	-1592.07068	350.7663	667.89783	-1212.23999	320.97888	460.27802	-1261.13892	258.1712	282.0148	-1262.84924	222.84489	92.58385	-1310.02734	189.12411	39.99566	-1370.13208	367.80331	35.39323	-1277.99854	397.3429	1807.10413	-1359.70935	-2845.88916	1034.37451	3357.5293	NaN	NaN	NaN
181	1.8	499.47852	1731.5116	-1452.81287	497.47876	1709.36353	-1310.02515	361.29196	1672.17737	-1461.77271	347.48291	1650.86963	-1319.99097	297.70004	1528.64673	-1377.78796	233.99904	1254.70715	-1365.08069	428.81573	1453.15173	-1409.64648	476.23846	1280.09436	-1400.00256	246.07898	1359.02039	-1299.45239	334.73792	1494.04431	-1566.87109	276.02335	1297.92261	-1634.65613	245.17523	1160.23071	-1636.17578	227.48149	1029.15149	-1646.09058	265.41101	894.95129	-1622.98535	214.31329	905.8219	-1645.4574	220.86969	838.80072	-1649.30334	407.32864	1497.65356	-1208.74719	429.22455	1310.50403	-1112.37244	480.86124	1171.61121	-1094.43298	547.93494	1070.51978	-1085.56067	627.60822	965.84741	-1117.23645	592.11072	948.42737	-1076.30811	649.07172	904.19305	-1081.26208	456.76022	993.22943	-1519.25903	464.18759	972.58807	-1261.18506	249.64088	1033.24219	-1430.08728	248.29498	1032.26379	-1316.13733	450.84149	691.63885	-1592.60767	482.849	494.17593	-1567.52429	456.47293	301.50534	-1564.86011	501.20435	80.45112	-1548.60645	485.05252	48.39076	-1490.1521	650.97864	63.71133	-1592.24255	355.76392	667.28973	-1212.58154	324.46796	459.82947	-1261.40186	259.94318	282.05234	-1262.979	223.29141	92.91451	-1310.10681	189.02394	40.57661	-1370.4646	368.2226	35.41757	-1277.67346	405.83203	1806.26965	-1360.70935	-2845.22339	1034.07349	3360.31519	NaN	NaN	NaN
182	1.81	507.64279	1730.13049	-1453.74487	505.75784	1708.39563	-1310.99792	369.37024	1671.19971	-1462.56604	355.47699	1650.28113	-1320.6886	305.66068	1527.77625	-1378.26794	241.56679	1253.9292	-1365.7937	436.71115	1452.12915	-1410.09766	483.97971	1279.1051	-1400.23877	253.93633	1358.11108	-1299.88696	342.52594	1492.92126	-1567.33875	282.72842	1297.32007	-1635.09204	251.37703	1159.55884	-1635.88696	232.40068	1028.77173	-1646.28564	269.14154	894.19672	-1623.54614	218.06335	905.61377	-1645.6416	223.68892	838.586	-1649.65002	415.2157	1496.76123	-1209.15759	437.18286	1310.06934	-1113.53857	491.13278	1171.52246	-1094.58154	558.77893	1070.87744	-1085.93567	639.6535	967.34283	-1117.85999	603.99561	949.25745	-1077.00891	661.45282	905.67639	-1081.89124	464.83517	992.43744	-1519.35706	471.26215	971.76666	-1261.23755	257.45062	1032.33936	-1430.88318	255.53778	1031.36572	-1316.953	459.07312	690.7099	-1592.89392	492.65091	493.44604	-1567.31592	472.35434	300.00095	-1566.15845	524.62286	79.84918	-1550.61597	508.14377	47.53632	-1493.15002	675.54028	67.5975	-1592.09509	361.02048	666.68811	-1212.93884	327.80844	459.40192	-1261.7113	261.84372	282.17557	-1263.41553	223.70203	93.35429	-1310.23926	189.34142	40.88173	-1370.43127	367.77399	35.34584	-1277.7926	414.21698	1805.37695	-1361.85706	-2845.22705	1034.11377	3360.29492	NaN	NaN	NaN
183	1.82	515.88043	1728.78796	-1454.81946	514.03094	1707.41907	-1312.04163	377.51239	1670.12549	-1463.49573	363.70212	1649.48364	-1321.65076	313.77313	1526.98059	-1379.05005	249.24536	1253.07397	-1366.51855	444.62469	1451.09302	-1410.67188	491.74228	1278.02832	-1400.55383	261.79227	1357.24768	-1300.42346	350.50232	1491.80371	-1567.99512	289.81216	1296.50122	-1635.47583	257.63821	1158.98315	-1636.15247	237.73335	1028.27161	-1646.44299	273.21964	893.48883	-1624.23926	222.10057	905.3573	-1646.04297	227.14427	838.21808	-1650.01245	423.12692	1495.87109	-1209.59631	445.7623	1309.17786	-1114.1134	500.34781	1171.13037	-1095.24707	568.995	1071.03723	-1086.67554	651.1026	968.33362	-1118.48157	615.62018	949.98212	-1077.82727	673.46014	906.90131	-1082.66968	473.05472	991.59406	-1519.42175	478.39279	970.80133	-1261.22583	265.3884	1031.32813	-1431.82141	262.9577	1030.44678	-1317.89258	467.32095	689.77277	-1593.25159	502.33817	492.69409	-1567.34558	487.51154	298.90869	-1568.02319	546.84766	80.08388	-1552.87451	530.59668	46.57461	-1494.91418	698.88336	71.38109	-1591.59998	366.11777	666.04797	-1213.06909	331.634	459.03079	-1261.83533	263.79968	282.41992	-1263.63623	224.1302	93.87444	-1310.39636	189.588	41.65182	-1370.56006	367.82568	35.34809	-1277.64392	422.67392	1804.40771	-1362.99597	-2845.20337	1034.19421	3360.27612	NaN	NaN	NaN
184	1.83	524.11993	1727.60437	-1456.05554	522.18066	1706.27063	-1313.09766	385.59125	1669.06604	-1464.48169	371.83368	1648.71777	-1322.4502	321.68896	1526.04248	-1379.92566	256.97906	1252.14355	-1367.43225	452.59872	1450.03271	-1411.34631	499.57507	1277.01184	-1400.98633	269.01443	1356.60095	-1301.72717	358.57108	1490.66748	-1568.72327	297.11505	1295.67224	-1636.00012	264.11511	1158.36682	-1636.60217	242.95374	1027.99402	-1647.17285	277.61282	892.76508	-1625.04187	226.57121	905.13031	-1646.6803	230.87329	837.88184	-1650.65491	430.75311	1495.00928	-1210.36182	453.96762	1308.16284	-1114.9187	509.78156	1170.5824	-1095.88599	579.09686	1071.1311	-1087.40479	662.20667	969.26935	-1119.33411	626.7887	950.3067	-1078.91235	685.01141	908.0575	-1083.63684	481.48102	990.75049	-1519.45264	485.62482	969.77405	-1261.19177	273.39554	1030.29834	-1432.76672	270.51974	1029.51733	-1318.84326	475.65665	688.81732	-1593.64282	511.89508	491.88647	-1567.61902	502.48981	297.79398	-1569.64343	567.71423	80.657	-1555.13354	551.66821	46.89464	-1498.0144	721.11115	75.19163	-1590.63354	371.46051	665.51563	-1213.41016	335.71277	458.81262	-1261.98254	265.99026	282.67093	-1264.10413	224.58003	94.40211	-1310.52588	189.81702	42.14502	-1370.94604	367.84515	35.30226	-1277.52795	431.04721	1803.49756	-1364.26135	-2845.18408	1034.18213	3360.2627	NaN	NaN	NaN
185	1.84	532.39172	1726.15369	-1457.10852	530.40759	1705.23547	-1314.24976	393.77261	1667.96973	-1465.57654	379.9032	1647.83936	-1323.61621	329.54739	1525.00989	-1380.85864	264.77673	1251.17139	-1368.52649	460.50327	1448.93176	-1412.06824	507.46124	1275.94128	-1401.43591	276.68506	1355.59607	-1302.86023	366.7533	1489.53516	-1569.5896	304.64755	1294.84839	-1636.80847	270.86151	1157.78943	-1637.26636	248.68884	1027.59485	-1647.97961	282.34354	891.94049	-1625.92346	231.38948	904.84375	-1647.55432	235.13136	837.50629	-1651.42957	438.44238	1494.00903	-1211.06897	462.25266	1307.15808	-1115.8783	518.15637	1169.95093	-1096.75024	588.84283	1071.0304	-1088.3667	672.97235	970.00714	-1120.1665	637.62573	950.73236	-1079.89026	696.36163	908.87927	-1084.46875	490.03375	989.82587	-1519.44556	492.97949	968.65515	-1261.15198	281.52969	1029.24609	-1433.87292	278.20111	1028.58057	-1319.98132	484.20844	687.89929	-1594.10144	521.40094	491.00238	-1567.9657	517.20874	296.61929	-1570.9054	587.7146	81.17685	-1556.92249	571.43835	46.60048	-1500.10229	742.08948	78.82608	-1589.38025	376.71838	664.98071	-1213.89331	339.39465	458.22961	-1262.23987	267.93863	283.00275	-1264.2616	225.07224	95.06463	-1310.69653	189.99872	42.8719	-1371.14563	367.87711	35.24868	-1277.37903	439.41666	1802.47217	-1365.58582	-2845.11328	1033.99329	3360.19385	NaN	NaN	NaN
186	1.85	540.68353	1724.93848	-1458.453	538.60297	1704.1123	-1315.43787	401.94009	1666.85657	-1466.79614	388.01834	1647.04907	-1324.61792	337.53558	1523.96228	-1381.90247	272.63913	1250.15698	-1369.69836	468.53302	1447.84595	-1412.93762	515.36505	1274.85205	-1401.95422	284.22311	1354.62622	-1303.86987	375.01941	1488.39514	-1570.62488	312.52316	1293.8114	-1637.56226	277.85855	1157.10681	-1638.14893	254.9879	1026.87793	-1648.62769	287.4549	891.17023	-1626.90869	236.58415	904.43164	-1648.6156	239.73344	837.08496	-1652.43982	445.86374	1493.06226	-1212.047	469.98584	1306.10181	-1117.05493	526.84479	1169.19482	-1097.89966	598.30652	1070.85693	-1089.49316	683.49139	970.69629	-1121.19128	648.02856	950.88318	-1081.13708	707.08984	909.61053	-1085.58069	498.71368	988.83862	-1519.45251	500.41885	967.46149	-1261.14075	289.74268	1028.18286	-1434.97754	285.96121	1027.63757	-1321.16455	492.94208	686.93451	-1594.51611	530.89154	490.00125	-1568.3689	530.88123	295.9425	-1572.55823	606.55011	81.93597	-1558.65845	590.25848	46.72054	-1502.18384	761.7196	82.02802	-1588.03113	381.98724	664.40503	-1214.35352	343.45587	457.85355	-1262.40649	270.18503	283.38004	-1264.53845	225.53157	95.91476	-1310.86536	190.20566	43.66965	-1371.25232	367.92264	35.20515	-1277.26367	447.81766	1801.4021	-1366.97461	-2845.28979	1034.08276	3360.21387	NaN	NaN	NaN
